<?xml version="1.0" encoding="utf-8"?>
<!-- Generator: Adobe Illustrator 16.0.0, SVG Export Plug-In . SVG Version: 6.00 Build 0)  -->
<!DOCTYPE svg PUBLIC "-//W3C//DTD SVG 1.1//EN" "http://www.w3.org/Graphics/SVG/1.1/DTD/svg11.dtd">
<svg version="1.1" id="Calque_1" xmlns="http://www.w3.org/2000/svg" xmlns:xlink="http://www.w3.org/1999/xlink" x="0px" y="0px"
	 width="500px" height="500px" viewBox="0 0 500 500" enable-background="new 0 0 500 500" xml:space="preserve">
<g>
	<g>
		<g>
			<g>
				
					<radialGradient id="SVGID_2_" cx="57.0005" cy="475.2646" r="125.2356" gradientTransform="matrix(1 0 0 -1 194 605)" gradientUnits="userSpaceOnUse">
					<stop  offset="0.2731" style="stop-color:#FFFFFF"/>
					<stop  offset="0.7989" style="stop-color:#005C73"/>
				</radialGradient>
				<circle id="SVGID_1_" fill="url(#SVGID_2_)" cx="251" cy="129.735" r="125.235"/>
			</g>
			<g>
				<defs>
					<circle id="SVGID_3_" cx="251" cy="129.735" r="125.235"/>
				</defs>
				<clipPath id="SVGID_4_">
					<use xlink:href="#SVGID_3_"  overflow="visible"/>
				</clipPath>
				
					<radialGradient id="SVGID_5_" cx="39.811" cy="511.207" r="170.0359" gradientTransform="matrix(1 0 0 -1 194 605)" gradientUnits="userSpaceOnUse">
					<stop  offset="0.2731" style="stop-color:#FFFFFF"/>
					<stop  offset="0.7989" style="stop-color:#005C73"/>
				</radialGradient>
				<circle clip-path="url(#SVGID_4_)" fill="url(#SVGID_5_)" cx="233.812" cy="93.793" r="170.036"/>
			</g>
		</g>
		<path fill="#FFFFFF" d="M207.171,243.296c0-2.59,2.993-6.499,6.688-8.729l24.256-14.579c3.693-2.231,6.813-7.539,6.813-11.854
			v-5.47c0-4.315-2.264-10.584-4.689-14.153c-11.411-16.793-40.167-65.441-37.789-125.133c0.171-4.313,3.921-7.985,8.236-7.985
			h80.644c4.316,0,8.13,3.673,8.296,7.985c2.294,59.784-27.429,108.395-39.217,125.115c-2.486,3.526-4.553,9.855-4.553,14.17v5.47
			c0,4.314,2.873,9.623,6.568,11.854l24.068,14.58c3.693,2.23,6.656,5.965,6.656,8.338c0,2.373-2.288,7.134-6.241,8.867
			c-8.204,3.599-21.105,4.239-29.34,4.234c-4.313-0.002-11.307-0.002-15.622-0.063c-7.417-0.107-18.754-0.919-27.843-4.397
			C210.075,250.005,207.171,245.884,207.171,243.296z"/>
		<path d="M206.562,124.178c-2.747-13.205-11.418-22.865-20.29-32.503c-9.627-10.458-15.38-20.754-12.753-34.84
			c1.136-3.518,3.727-6.376,7.06-7.88c-1.312,1.627-2.101,3.694-2.101,5.948c0,5.243,4.25,9.494,9.495,9.494
			c5.242,0,9.493-4.251,9.493-9.494c0-1.192-0.23-2.329-0.632-3.381c0.076,0.1,0.16,0.192,0.233,0.294
			c-2.759-6.097-8.883-10.348-16.01-10.348c-6.041,0-11.367,3.049-14.531,7.69c-1.629,2.038-2.455,5.422-2.455,5.422
			c-0.296,1.125-0.479,2.293-0.545,3.494c-1.55,12.593,2.062,23.63,10.333,34.101c7.253,9.18,16.22,16.662,20.917,27.134
			c-2.911,1.382-4.93,4.341-4.93,7.777c0,4.757,3.856,8.615,8.615,8.615c4.757,0,8.614-3.856,8.614-8.615
			C207.077,126.063,206.889,125.087,206.562,124.178z"/>
		<path fill="#FFFFFF" d="M295.539,120.618c2.473-11.885,10.277-20.578,18.262-29.251c8.664-9.413,13.842-18.679,11.478-31.358
			c-1.024-3.167-3.354-5.739-6.353-7.094c1.182,1.466,1.891,3.326,1.891,5.355c0,4.719-3.826,8.544-8.546,8.544
			c-4.718,0-8.542-3.826-8.542-8.544c0-1.074,0.206-2.098,0.566-3.042c-0.066,0.088-0.145,0.172-0.209,0.264
			c2.484-5.487,7.994-9.312,14.409-9.312c5.438,0,10.23,2.744,13.08,6.921c1.465,1.835,2.209,4.881,2.209,4.881
			c0.266,1.013,0.43,2.063,0.489,3.144c1.394,11.334-1.853,21.266-9.3,30.691c-6.526,8.261-14.599,14.996-18.826,24.421
			c2.619,1.243,4.437,3.905,4.437,7c0,4.281-3.471,7.753-7.754,7.753c-4.284,0-7.753-3.472-7.753-7.753
			C295.077,122.314,295.247,121.437,295.539,120.618z"/>
		<g>
			<g>
				<defs>
					<path id="SVGID_6_" d="M335.709,54.685c-0.074-1.336-0.279-2.632-0.607-3.883c0,0-0.916-3.761-2.728-6.026
						c-3.516-5.155-9.432-8.543-16.145-8.543c-7.92,0-14.725,4.722-17.79,11.496c0.08-0.114,0.175-0.217,0.259-0.327
						c-0.445,1.168-0.7,2.432-0.7,3.758c0,5.825,4.724,10.548,10.547,10.548c5.827,0,10.549-4.723,10.549-10.548
						c0-2.504-0.875-4.803-2.334-6.61c3.705,1.672,6.584,4.848,7.847,8.756c2.916,15.653-3.476,27.091-14.173,38.713
						c-5.597,6.082-11.12,12.174-15.41,18.99c3.34-14.611,5.255-30.766,4.606-47.631c-0.165-4.312-3.98-7.985-8.295-7.985h-80.646
						c-4.314,0-8.127,3.672-8.299,7.985c-0.682,17.097,1.192,33.36,4.475,48.135c-4.34-7.056-10.013-13.282-15.773-19.539
						c-10.697-11.622-17.088-23.038-14.171-38.69c1.264-3.908,4.142-7.073,7.844-8.746c-1.458,1.809-2.334,4.112-2.334,6.615
						c0,5.827,4.723,10.552,10.548,10.552c5.825,0,10.548-4.72,10.548-10.547c0-1.325-0.255-2.588-0.701-3.756
						c0.083,0.11,0.178,0.214,0.259,0.328c-3.066-6.776-9.87-11.496-17.79-11.496c-6.712,0-12.629,3.388-16.146,8.543
						c-1.81,2.266-2.727,6.027-2.727,6.027c-0.329,1.25-0.533,2.546-0.607,3.882c-1.721,13.991,2.291,26.255,11.483,37.889
						c8.06,10.2,18.022,18.514,23.242,30.149c-3.235,1.535-5.479,4.823-5.479,8.642c0,5.287,4.284,9.572,9.571,9.572
						c4.005,0,7.431-2.461,8.86-5.953c8.705,25.228,20.433,44.232,26.748,53.528c2.426,3.568,4.689,9.837,4.689,14.153v5.469
						c0,4.315-3.12,9.623-6.812,11.854l-24.193,14.58c-3.694,2.231-6.719,6.138-6.719,8.729c0,2.588,2.885,6.709,6.916,8.251
						c9.089,3.477,20.417,4.29,27.833,4.397c4.315,0.059,11.299,0.062,15.615,0.063c8.232,0.005,21.125-0.638,29.329-4.236
						c3.951-1.734,6.224-6.493,6.224-8.866c0-2.374-2.995-6.108-6.689-8.339l-24.007-14.579c-3.694-2.231-6.568-7.54-6.568-11.854
						v-5.47c0-4.315,2.066-10.55,4.553-14.075c6.539-9.276,18.568-28.346,27.653-53.687c1.407,3.534,4.822,6.035,8.858,6.035
						c5.286,0,9.557-4.286,9.557-9.572c0-3.82-2.252-7.107-5.486-8.642c5.219-11.636,15.178-19.95,23.237-30.149
						C333.42,80.938,337.43,68.675,335.709,54.685z"/>
				</defs>
				<clipPath id="SVGID_7_">
					<use xlink:href="#SVGID_6_"  overflow="visible"/>
				</clipPath>
				<path clip-path="url(#SVGID_7_)" d="M252.215,55.767v165.649l26.186,38.029l-20.771,6.77l-41.751-13.176l31.479-32.142v-27.61
					c0,0,2.957-0.129-6.42-16.799c-9.376-16.67-22.869-41.428-27.626-83.399l-3.535-44.982h42.438V55.767z"/>
			</g>
		</g>
		<path d="M234.013,150.743c2.747-13.205,11.417-22.864,20.288-32.502c9.627-10.458,15.378-20.753,12.756-34.841
			c-1.139-3.517-3.728-6.376-7.061-7.88c1.312,1.628,2.1,3.695,2.1,5.948c0,5.243-4.248,9.494-9.492,9.494
			c-5.242,0-9.494-4.25-9.494-9.494c0-1.192,0.228-2.329,0.632-3.381c-0.076,0.1-0.162,0.192-0.233,0.294
			c2.759-6.097,8.882-10.347,16.012-10.347c6.042,0,11.365,3.049,14.53,7.689c1.627,2.038,2.454,5.424,2.454,5.424
			c0.296,1.125,0.479,2.291,0.544,3.494c1.549,12.592-2.06,23.629-10.335,34.101c-7.253,9.18-16.219,16.662-20.917,27.134
			c2.913,1.382,4.931,4.341,4.931,7.778c0,4.757-3.855,8.615-8.614,8.615c-4.759,0-8.616-3.857-8.616-8.615
			C233.498,152.629,233.686,151.653,234.013,150.743z"/>
		<path d="M234.141,156.556c-0.152-1.011-0.373-1.965-0.644-2.845c-3.09-12.889-8.129-21.905-13.248-30.887
			c-5.558-9.747-9.473-19.573-10.453-33.669c-0.043-3.55,0.616-6.539,1.784-8.234c-0.306,1.692-0.332,3.786,0,6.015
			c0.772,5.187,3.171,9.126,5.359,8.801c2.186-0.327,3.333-4.794,2.56-9.98c-0.176-1.18-0.438-2.291-0.761-3.306
			c0.047,0.093,0.096,0.18,0.14,0.276c-2.049-5.858-5.228-9.683-8.201-9.24c-2.521,0.376-4.292,3.722-4.929,8.509
			c-0.379,2.117-0.225,5.517-0.225,5.517c0.041,1.131,0.136,2.297,0.287,3.49c1.209,12.551,4.34,23.244,9.333,33.087
			c4.377,8.629,9.219,15.473,12.722,25.538"/>
	</g>
	<g>
		<g>
			<g>
				<path d="M72.636,381.245c6.256-5.941,15.68-8.872,23.678-8.872c4.514,0,9.266,1.11,11.405,2.06
					c1.426,0.633,1.899,0.477,3.166-0.238c1.11-0.552,1.346-0.552,1.585-0.235c0.158,0.235,0.792,1.109,0.238,1.899
					c-1.743,2.454-3.01,5.305-4.436,9.978c-0.554,1.745-0.871,1.981-1.188,1.981c-0.791,0-1.426-1.031-1.267-2.377
					c0.554-3.802-0.079-5.069-1.505-6.89c-1.899-2.692-5.702-3.878-7.364-3.878c-2.376,0-7.92,0.631-14.413,7.124
					c-6.018,6.099-9.107,16.552-9.107,24.154c0,4.355,0.951,8.238,2.456,10.453c3.008,4.277,6.493,5.463,9.58,5.463
					c1.821,0,6.178-1.976,9.029-4.037c1.9-1.504,4.513-3.563,6.652-6.099c0.712-0.711,1.267-1.188,1.662-1.188
					c0.556,0,0.556,1.346,0.237,2.456c-0.632,2.217-6.334,10.293-6.652,10.771c-0.237,0.396-1.109,0.79-1.425,0.555
					c-0.873-0.794-2.377-1.426-4.197-1.032c-1.664,0.318-5.702,1.585-9.345,1.585c-5.859,0-14.889-1.82-18.293-10.77
					c-0.951-2.454-1.268-5.386-1.268-8.948C61.867,396.926,65.983,387.581,72.636,381.245z"/>
				<path d="M124.426,393.043c0.237,0.555,0.156,1.267-0.238,2.059c-1.822,3.722-7.207,17.266-7.919,19.799
					c-0.633,2.14,0.159,3.088,0.951,3.088c2.534,0,7.919-5.621,12.353-12.986c2.693-4.516,5.306-9.343,6.416-11.404
					c0.475-0.87,1.742-2.375,2.771-2.375c1.899,0,3.722,1.741,3.722,2.455c0,0.632-0.079,1.583-0.713,3.009
					c-2.138,5.067-5.86,14.016-7.364,18.769c-0.239,0.871,0.079,1.585,0.632,1.585c0.872,0,3.644-1.268,7.444-5.07
					c0.396-0.395,1.267-0.554,1.267,0.08c0,0.476-0.08,1.029-0.476,1.821c-2.296,4.83-10.691,10.847-15.127,10.847
					c-1.188,0-2.455-1.897-2.455-2.533c0-0.394,0.079-0.711,0.238-1.267c0.396-1.188,3.247-7.839,3.722-9.343
					c0.556-1.664-0.237-1.505-1.188-0.395c-4.515,5.541-9.899,9.659-12.987,11.64c-1.743,1.107-4.118,1.897-5.465,1.897
					c-1.346,0-2.217-0.472-2.771-1.188c-0.475-0.553-0.792-2.217-0.156-3.879c0.79-2.217,5.304-13.384,8.154-20.034
					c0.554-1.269,0.397-1.663-0.079-1.663c-0.713,0-4.118,2.296-5.068,2.931c-0.792,0.553-1.899,0.711-1.899,0.158
					c0-0.396,0.395-1.109,0.632-1.505c1.267-2.299,9.108-8.315,13.541-8.315C122.843,391.223,123.95,392.094,124.426,393.043z"/>
				<path d="M161.135,423.292c-1.822,0.875-4.197,1.27-4.833,1.27c-1.266,0-2.455-0.477-3.641-1.031
					c-1.98,6.02-2.93,10.057-3.643,13.702c-0.555,2.533,0.396,3.246,3.564,3.959c1.583,0.317,2.138,0.714,2.138,1.346
					c0,0.556-1.03,1.028-2.376,1.028c-2.297,0-3.722-0.078-5.781-0.078c-4.197,0-8.393,0.555-10.532,0.555
					c-1.742,0.078-2.295-0.317-2.295-0.87c0-0.556,0.632-1.032,2.137-1.426c3.167-0.792,3.959-1.743,4.831-4.433l12.987-40.786
					c0.159-0.315-0.079-0.634-0.475-0.476c-2.218,0.634-3.801,1.505-6.02,2.612c-1.03,0.476-2.137,0.237-2.137-0.237
					c0-0.713,0.554-1.266,0.871-1.504c2.612-1.821,6.968-3.722,8.473-4.274c0.317-0.08,0.554-0.555,0.632-0.713
					c1.03-3.168,1.505-4.276,2.218-5.069c0.713-0.791,3.722-1.267,5.386-1.267c1.028,0,1.107,1.03,1.107,1.503
					c0,0.715-0.554,2.299-0.95,3.566c-0.079,0.317-0.079,0.713,0.237,0.713c6.81,0,14.255,2.216,14.255,9.344
					C177.291,411.416,167.867,420.048,161.135,423.292z M162.877,394.469c-0.316,0-1.109,0.316-1.188,0.556
					c-2.456,7.363-4.989,14.81-7.523,23.913c-0.078,0.236-0.078,1.11,0,1.348c0.477,1.188,1.504,2.139,1.981,2.139
					c1.029,0,2.533-0.95,3.879-2.139c5.306-5.147,9.187-13.463,9.187-20.985C169.212,396.926,166.363,394.469,162.877,394.469z"/>
				<path d="M200.341,373.484c2.612,0,6.413,0.236,9.026,0.236c2.614,0,6.574-0.315,9.344-0.315c1.664,0,2.534,0.474,2.534,0.869
					c0,0.794-0.632,1.189-1.743,1.426c-2.612,0.557-3.722,1.11-4.514,3.879c-1.585,5.545-4.197,23.68-4.436,27.322
					c-0.078,0.554,0.872,0.081,1.189-0.317c5.86-6.81,15.6-18.847,18.055-23.913c0.395-0.793,0.554-1.11,0.632-1.745
					c0.396-2.535,0.396-4.591-3.009-5.067c-1.188-0.159-2.377-0.634-2.298-1.346c0-0.792,1.11-1.029,2.376-1.029
					c3.168,0,6.335,0.236,8.871,0.236c2.455,0,8.87-0.476,9.74-0.476c1.11,0,2.059,0.398,2.059,0.949
					c0,0.794-0.95,1.268-2.217,1.505c-3.643,0.714-4.436,1.109-5.068,4.118c-0.951,4.751-2.377,24.786-2.061,27.401
					c0,0.237,0.397,0.871,0.872,0.475c2.693-2.375,16.789-20.193,19.641-24.708c3.642-5.701,2.453-6.571-1.505-7.126
					c-1.188-0.159-2.299-0.634-2.219-1.107c0-0.792,0.792-1.188,2.376-1.188c1.19,0,4.989,0.156,7.919,0.156
					c3.088,0,6.02-0.395,7.603-0.395c0.791,0,2.138,0.158,2.138,0.79c-0.08,1.109-1.898,1.584-2.454,1.662
					c-4.513,0.714-7.047,3.88-10.057,7.286c-5.622,6.573-18.769,23.362-23.044,28.352c-3.644,4.356-7.049,9.582-8.315,11.165
					c-1.505,1.744-2.613,2.216-3.169,2.216c-0.949,0-1.188-1.504-1.109-2.057c0.713-5.148,0.951-7.763,1.346-12.512
					c0.633-8.712,1.19-18.055,1.346-21.463c0.079-0.949-0.95-0.632-1.267-0.158c-6.256,8.79-15.759,20.271-19.243,24.707
					c-3.644,4.753-5.703,8-6.891,9.346c-1.029,1.188-3.166,2.533-3.882,2.533c-0.554,0-1.266-0.869-1.028-1.979
					c0.713-2.851,1.504-7.603,2.376-12.83c1.583-9.342,3.325-23.044,3.8-27.479c0.713-5.781-0.156-6.255-3.959-7.049
					c-1.664-0.318-2.138-0.869-2.138-1.346C197.966,373.721,199.232,373.484,200.341,373.484z"/>
				<path d="M281.646,393.679c0,0.711-0.556,2.058-0.874,2.771c-3.719,9.03-5.383,13.857-7.996,20.114
					c-0.236,0.712,0.237,1.188,0.872,1.188c0.871,0,3.721-1.744,6.336-4.197c0.87-0.791,1.187-1.108,1.662-1.108
					c0.158,0,0.552,0.238,0.552,0.554c0,0.713-0.474,1.82-1.426,2.852c-3.719,4.591-11.403,9.028-14.648,9.028
					c-1.188,0-3.087-1.268-3.087-2.297c0-0.478,0-0.556,0.314-1.345c2.853-6.97,5.545-13.067,8.95-21.621
					c0.238-0.714,0-1.426-0.632-1.344c-1.19,0.156-3.248,1.029-5.228,2.611c-0.396,0.316-1.108-0.079-1.108-0.478
					c0-0.552,0.396-1.266,0.948-1.979c1.744-1.899,9.187-7.047,13.464-7.047C280.538,391.382,281.646,392.964,281.646,393.679z
					 M284.575,379.027c0,2.374-2.377,5.226-4.91,5.226c-0.711,0-1.345-0.157-1.742-0.476c-1.03-0.714-1.898-1.899-1.898-3.643
					c0-1.979,1.188-3.483,2.296-4.355c0.948-0.633,1.9-0.87,2.455-0.87C283.389,374.911,284.575,376.89,284.575,379.027z"/>
				<path d="M319.873,396.371c0,1.345-0.235,2.851-1.106,5.068c-1.744,4.671-5.465,12.828-6.179,14.096
					c-0.712,1.427-0.395,2.139,0.317,2.139c1.267,0,4.675-2.298,6.654-4.119c0.949-0.951,1.426-0.633,1.426,0.158
					c0,0.949-0.713,1.98-1.189,2.613c-3.088,4.195-10.137,8.472-14.57,8.472c-0.791,0-2.217-0.711-2.93-1.818
					c-0.396-0.634-0.633-1.268-0.078-2.378c0.712-1.345,9.424-19.242,10.294-21.777c0.792-2.453,0.237-3.483-1.267-3.483
					c-1.821,0-5.146,2.932-8.076,7.128c-3.565,4.986-8.553,13.857-11.006,17.579c-2.14,3.484-3.406,4.832-4.198,4.832
					c-2.218,0-3.879-1.9-3.879-3.088c-0.08-1.664,1.502-4.989,1.821-5.703c2.214-4.985,5.622-11.877,7.918-17.815
					c0.477-0.953,0.16-1.269-0.396-1.269c-2.298,0-4.434,2.217-6.177,3.801c-0.396,0.396-0.634,0.555-1.11,0.555
					c-0.234,0.079-0.552-0.555-0.552-0.871c0-3.484,4.988-9.185,12.194-9.185c0.792,0,2.535,0.632,2.932,2.058
					c0.234,0.631,0.234,1.187-0.318,2.532l-4.275,9.821c-0.478,1.108,0.236,1.662,0.87,0.555c2.217-3.405,7.047-9.186,9.503-11.167
					c3.563-2.85,6.256-3.799,8.077-3.799C318.054,391.302,319.873,393.915,319.873,396.371z"/>
				<path d="M359.223,396.371c0,1.345-0.237,2.851-1.11,5.068c-1.741,4.671-5.464,12.828-6.175,14.096
					c-0.715,1.427-0.397,2.139,0.315,2.139c1.268,0,4.672-2.298,6.652-4.119c0.95-0.951,1.427-0.633,1.427,0.158
					c0,0.949-0.713,1.98-1.188,2.613c-3.089,4.195-10.137,8.472-14.57,8.472c-0.791,0-2.218-0.711-2.931-1.818
					c-0.396-0.634-0.634-1.268-0.078-2.378c0.713-1.345,9.424-19.242,10.295-21.777c0.79-2.453,0.237-3.483-1.267-3.483
					c-1.822,0-5.148,2.932-8.079,7.128c-3.562,4.986-8.552,13.857-11.006,17.579c-2.138,3.484-3.406,4.832-4.197,4.832
					c-2.219,0-3.881-1.9-3.881-3.088c-0.078-1.664,1.506-4.989,1.821-5.703c2.219-4.985,5.624-11.877,7.921-17.815
					c0.475-0.953,0.157-1.269-0.397-1.269c-2.295,0-4.435,2.217-6.178,3.801c-0.396,0.396-0.633,0.555-1.107,0.555
					c-0.238,0.079-0.554-0.555-0.554-0.871c0-3.484,4.987-9.185,12.195-9.185c0.791,0,2.533,0.632,2.93,2.058
					c0.238,0.631,0.238,1.187-0.317,2.532l-4.276,9.821c-0.474,1.108,0.237,1.662,0.871,0.555c2.217-3.405,7.05-9.186,9.504-11.167
					c3.564-2.85,6.256-3.799,8.077-3.799C357.399,391.302,359.223,393.915,359.223,396.371z"/>
				<path d="M390.151,396.687c0,3.72-3.168,6.492-7.127,8.395c-2.931,1.425-7.603,2.692-10.216,3.327
					c-0.633,0.157-0.87,0.552-1.108,1.267c-0.317,0.947-0.715,2.771-0.715,4.75c0,3.087,1.823,4.671,3.725,4.671
					c2.217,0,5.065-1.107,8.394-3.958c0.713-0.556,1.346-1.188,1.9-1.188c0.315,0,0.553,0.317,0.553,0.554
					c0,0.556-0.553,1.821-1.029,2.377c-3.248,4.038-8.789,7.68-14.65,7.68c-2.534,0-7.285-3.404-7.285-9.185
					c0-5.541,3.801-13.304,8.077-17.818c4.04-4.038,9.105-6.336,12.751-6.336C388.487,391.223,390.151,394.39,390.151,396.687z
					 M372.888,405.397c-0.079,0.395,0,0.95,0.476,0.79c6.969-2.374,10.531-7.68,10.531-10.53c0-1.504-0.631-2.218-1.425-2.218
					C378.986,393.439,374.471,399.855,372.888,405.397z"/>
				<path d="M405.296,395.498c0,2.06-1.188,5.626-1.9,7.445c-0.395,1.188,0.078,1.503,0.952,0.077
					c1.898-2.85,3.72-5.542,5.305-7.361c2.929-3.406,5.146-4.436,7.285-4.436c2.613,0,3.563,2.139,3.563,3.802
					c0,4.277-3.722,7.206-4.83,7.206c-0.557,0-1.188-0.158-1.345-1.188c-0.478-2.061-1.189-3.803-1.901-3.803
					c-0.792,0-1.901,0.714-3.801,3.883c-3.406,5.938-8.712,17.736-10.374,20.587c-1.187,2.06-2.218,3.009-4.038,3.009
					c-0.714,0-2.614-0.474-3.167-1.346c-0.079-0.157-0.079-1.107,0-1.505c1.503-4.355,4.909-13.066,7.443-20.982
					c0.789-2.298,0.079-3.011-0.794-3.011c-0.79,0-2.295,0.632-4.274,2.771c-0.634,0.713-1.188,1.267-1.506,1.267
					c-0.712,0-0.948-1.108-0.475-2.455c1.98-5.385,6.334-8.235,9.819-8.235C403.87,391.223,405.296,393.52,405.296,395.498z"/>
				<path d="M439.186,392.884c0.474,0.478,0.948,1.348,0.948,1.982c0,1.266-1.661,3.482-2.613,4.115
					c-0.237,0.16-0.792,0.079-1.106-0.157c-1.505-1.187-3.882-3.721-6.258-3.721c-0.713,0-2.532,1.029-2.532,2.93
					c0,1.663,1.743,4.039,4.83,7.446c2.614,3.008,3.961,5.304,3.961,7.284c0,2.771-2.219,5.858-4.989,7.919
					c-3.326,2.612-7.682,3.879-9.344,3.879c-3.246,0-6.732-2.057-6.732-4.67c0-0.636,1.268-2.852,2.378-4.04
					c0.314-0.316,1.027-0.396,1.267-0.078c1.426,1.188,4.75,4.433,7.918,4.433c1.9,0,3.485-1.188,3.485-2.771
					c0-0.95-1.029-3.167-4.594-6.97c-3.167-3.561-3.642-5.94-3.642-7.68c0-1.899,1.268-5.146,4.196-7.683
					c3.326-3.009,6.493-3.879,8.235-3.879C436.729,391.223,438.473,392.173,439.186,392.884z"/>
			</g>
			<g>
				<path d="M213.787,445.337c4.937-4.687,12.373-7.001,18.686-7.001c3.563,0,7.312,0.874,9.002,1.627
					c1.125,0.496,1.5,0.372,2.499-0.19c0.875-0.435,1.062-0.435,1.25-0.185c0.125,0.185,0.624,0.873,0.188,1.498
					c-1.375,1.938-2.376,4.188-3.501,7.874c-0.436,1.376-0.686,1.562-0.936,1.562c-0.625,0-1.125-0.812-1-1.874
					c0.438-3.002-0.062-4.003-1.188-5.44c-1.5-2.123-4.501-3.061-5.813-3.061c-1.874,0-6.25,0.499-11.375,5.626
					c-4.751,4.812-7.188,13.062-7.188,19.06c0,3.439,0.749,6.501,1.938,8.248c2.374,3.378,5.125,4.315,7.562,4.315
					c1.438,0,4.875-1.562,7.125-3.187c1.498-1.188,3.562-2.814,5.25-4.813c0.562-0.562,1-0.938,1.313-0.938
					c0.437,0,0.437,1.062,0.188,1.938c-0.5,1.749-5.001,8.126-5.251,8.502c-0.186,0.312-0.874,0.624-1.125,0.437
					c-0.687-0.626-1.874-1.127-3.312-0.812c-1.313,0.249-4.5,1.248-7.377,1.248c-4.625,0-11.75-1.438-14.437-8.501
					c-0.75-1.936-1-4.248-1-7.059C205.287,457.71,208.537,450.336,213.787,445.337z"/>
				<path d="M254.837,454.65c0.186,0.436,0.125,0.996-0.189,1.622c-1.437,2.938-5.687,13.627-6.247,15.625
					c-0.502,1.688,0.125,2.438,0.749,2.438c2,0,6.25-4.437,9.749-10.248c2.126-3.566,4.188-7.377,5.062-9.001
					c0.375-0.687,1.376-1.873,2.189-1.873c1.5,0,2.937,1.373,2.937,1.934c0,0.501-0.062,1.252-0.562,2.378
					c-1.688,3.998-4.625,11.062-5.811,14.809c-0.188,0.689,0.06,1.251,0.501,1.251c0.685,0,2.872-1,5.872-3.998
					c0.313-0.314,1-0.439,1,0.062c0,0.376-0.062,0.812-0.376,1.438c-1.812,3.813-8.436,8.562-11.937,8.562
					c-0.937,0-1.938-1.496-1.938-1.998c0-0.312,0.063-0.562,0.188-1.001c0.312-0.938,2.56-6.188,2.938-7.374
					c0.436-1.313-0.188-1.188-0.938-0.313c-3.562,4.375-7.812,7.625-10.25,9.189c-1.375,0.872-3.249,1.496-4.312,1.496
					c-1.062,0-1.749-0.375-2.187-0.936c-0.376-0.437-0.626-1.748-0.125-3.062c0.627-1.75,4.187-10.562,6.437-15.812
					c0.438-0.997,0.312-1.312-0.062-1.312c-0.562,0-3.249,1.812-3.999,2.312c-0.624,0.436-1.5,0.562-1.5,0.126
					c0-0.313,0.314-0.876,0.5-1.188c1-1.812,7.188-6.561,10.689-6.561C253.585,453.212,254.461,453.898,254.837,454.65z"/>
				<path d="M283.966,478.523c-1.438,0.687-3.314,0.999-3.813,0.999c-0.999,0-1.939-0.378-2.876-0.812
					c-1.562,4.749-2.31,7.937-2.875,10.813c-0.435,1.999,0.316,2.561,2.814,3.121c1.247,0.25,1.686,0.565,1.686,1.062
					c0,0.439-0.812,0.815-1.874,0.815c-1.812,0-2.937-0.064-4.562-0.064c-3.314,0-6.624,0.439-8.312,0.439
					c-1.375,0.062-1.813-0.249-1.813-0.69c0-0.436,0.501-0.812,1.688-1.123c2.501-0.627,3.124-1.377,3.812-3.5l10.25-32.188
					c0.125-0.249-0.062-0.5-0.375-0.375c-1.749,0.5-3,1.188-4.751,2.06c-0.812,0.376-1.686,0.189-1.686-0.186
					c0-0.562,0.437-1.001,0.688-1.188c2.059-1.438,5.496-2.937,6.686-3.375c0.249-0.062,0.437-0.437,0.501-0.562
					c0.812-2.502,1.187-3.377,1.748-4.003c0.562-0.623,2.936-0.996,4.249-0.996c0.813,0,0.876,0.811,0.876,1.187
					c0,0.562-0.438,1.812-0.751,2.812c-0.061,0.249-0.061,0.563,0.188,0.563c5.375,0,11.25,1.749,11.25,7.375
					C296.715,469.146,289.278,475.959,283.966,478.523z M285.339,455.772c-0.249,0-0.875,0.251-0.937,0.439
					c-1.938,5.812-3.938,11.688-5.939,18.872c-0.061,0.188-0.061,0.875,0,1.065c0.377,0.937,1.188,1.685,1.562,1.685
					c0.812,0,2.001-0.747,3.062-1.685c4.188-4.062,7.251-10.626,7.251-16.564C290.341,457.71,288.089,455.772,285.339,455.772z"/>
			</g>
		</g>
		<g id="e0HHg3_1_">
			<g>
				<path fill="#FFFFFF" d="M299.5,356.587c-24.251-29.886-71.461-30.492-96.329-1.248c0.813,0.901,1.62,1.789,2.437,2.691
					c12.388-13.453,27.563-20.579,45.82-20.368c18.291,0.212,33.309,7.747,45.356,21.464
					C297.747,358.22,298.626,357.401,299.5,356.587z M304.199,348.862c0.092-0.405,0.147-0.589,0.176-0.78
					c1.146-7.845,2.304-15.689,3.411-23.541c0.051-0.358-0.245-0.916-0.554-1.15c-1.319-1.002-2.743-1.872-4.053-2.886
					c-0.732-0.567-1.259-0.524-2.029-0.058c-6.126,3.709-12.282,7.364-18.428,11.041c-0.443,0.266-0.883,0.539-1.482,0.907
					c0.922,0.518,1.768,0.854,2.443,1.398c2.246,1.81,4.393,2.012,6.539-0.132c0.47-0.469,0.941-0.408,1.499-0.01
					c2.472,1.761,4.966,3.491,7.47,5.203c0.53,0.363,0.778,0.711,0.607,1.393c-0.242,0.977-0.422,1.98-0.514,2.986
					c-0.037,0.42,0.09,0.993,0.369,1.275C301.07,345.947,302.562,347.312,304.199,348.862z M204.657,316.436
					c-1.64,1.298-3.117,2.463-4.645,3.672c0.32,0.433,0.573,0.791,0.84,1.136c1.961,2.526,3.96,5.022,5.881,7.577
					c1.795,2.387,1.668,4.906-0.427,7.024c-0.836,0.844-1.866,1.578-2.935,2.091c-2.098,1.008-4.156,0.532-5.761-1.155
					c-0.557-0.582-1.035-1.241-1.535-1.879c-1.864-2.384-3.726-4.774-5.643-7.232c-1.57,1.237-3.051,2.405-4.628,3.649
					c2.563,3.231,4.953,6.448,7.562,9.472c1.981,2.297,4.676,3.203,7.686,2.64c5.228-0.981,9.033-4.016,11.584-8.592
					c1.452-2.602,1.417-5.431-0.211-7.873C210.034,323.377,207.316,320.008,204.657,316.436z M242.146,313.706
					c-3.65,0.747-7.193,1.475-10.83,2.221c-0.316-1.553-0.602-2.964-0.909-4.48c3.816-0.803,7.518-1.582,11.314-2.38
					c-0.272-1.323-0.516-2.499-0.787-3.821c-5.75,1.192-11.397,2.366-17.208,3.573c1.469,7.096,2.916,14.085,4.385,21.179
					c5.876-1.226,11.605-2.416,17.457-3.636c-0.271-1.329-0.518-2.534-0.782-3.815c-3.938,0.807-7.724,1.579-11.601,2.372
					c-0.361-1.755-0.689-3.366-1.045-5.114c3.633-0.771,7.165-1.521,10.797-2.293C242.659,316.182,242.417,315.007,242.146,313.706z
					 M263.515,305.376c-1.511,7.165-2.975,14.115-4.456,21.153c2.029,0.424,3.903,0.817,5.85,1.224
					c0.639-2.984,1.237-5.778,1.858-8.672c3.52,0.736,6.91,1.448,10.435,2.188c0.265-1.293,0.513-2.499,0.783-3.82
					c-3.538-0.757-6.956-1.488-10.425-2.231c0.359-1.668,0.68-3.153,1.024-4.751c3.543,0.738,6.931,1.446,10.427,2.177
					c0.279-1.336,0.532-2.538,0.804-3.825C274.322,307.66,268.989,306.533,263.515,305.376z"/>
				<path d="M173.271,325.194c2.178-2.051,4.297-4.169,6.54-6.146c16.776-14.768,36.267-23.553,58.44-26.354
					c2.287-0.289,4.598-0.398,6.897-0.602c0.437-0.038,0.87-0.136,1.304-0.204c3.161,0,6.32,0,9.481,0
					c2.576,0.241,5.159,0.428,7.728,0.736c25.213,3.052,46.719,13.676,64.614,31.659c0.14,0.141,0.252,0.306,0.455,0.553
					c-1.024,0.96-2.018,1.89-3.046,2.854c-20.646-20.775-45.417-31.862-74.757-31.736c-29.345,0.128-54.039,11.392-74.501,32.382
					c-1.043-0.96-2.099-1.93-3.155-2.898C173.271,325.355,173.271,325.275,173.271,325.194z"/>
				<path d="M299.5,356.587c-0.874,0.814-1.75,1.636-2.715,2.536c-12.049-13.716-27.065-21.252-45.356-21.464
					c-18.256-0.21-33.432,6.917-45.819,20.37c-0.816-0.903-1.624-1.793-2.437-2.694C228.039,326.092,275.249,326.701,299.5,356.587z
					"/>
				<path d="M304.199,348.862c-1.637-1.551-3.129-2.915-4.545-4.35c-0.279-0.282-0.406-0.858-0.369-1.278
					c0.092-1.004,0.271-2.007,0.514-2.986c0.171-0.682-0.077-1.029-0.607-1.392c-2.505-1.711-4.998-3.442-7.469-5.203
					c-0.559-0.397-1.032-0.459-1.5,0.011c-2.146,2.144-4.293,1.941-6.539,0.131c-0.676-0.545-1.521-0.882-2.443-1.398
					c0.6-0.368,1.037-0.641,1.482-0.907c6.146-3.676,12.302-7.333,18.428-11.041c0.771-0.467,1.299-0.51,2.029,0.058
					c1.31,1.014,2.733,1.883,4.053,2.886c0.309,0.234,0.604,0.792,0.554,1.151c-1.107,7.852-2.262,15.695-3.411,23.54
					C304.347,348.273,304.291,348.457,304.199,348.862z M302.529,325.721c-2.833,1.795-5.358,3.396-8.031,5.089
					c2.198,1.531,4.202,2.925,6.375,4.438C301.431,332.043,301.95,329.054,302.529,325.721z"/>
				<path d="M204.657,316.436c2.66,3.569,5.377,6.941,7.77,10.528c1.629,2.443,1.663,5.272,0.211,7.874
					c-2.551,4.576-6.356,7.61-11.584,8.591c-3.01,0.562-5.705-0.345-7.686-2.64c-2.61-3.024-4.999-6.24-7.562-9.472
					c1.578-1.243,3.058-2.412,4.628-3.649c1.919,2.459,3.78,4.847,5.643,7.23c0.5,0.639,0.977,1.298,1.535,1.881
					c1.605,1.688,3.663,2.164,5.761,1.156c1.069-0.513,2.098-1.247,2.935-2.093c2.093-2.118,2.222-4.637,0.427-7.022
					c-1.921-2.557-3.919-5.052-5.881-7.578c-0.268-0.344-0.521-0.702-0.84-1.138C201.538,318.9,203.017,317.733,204.657,316.436z"/>
				<path d="M242.146,313.706c0.269,1.301,0.513,2.476,0.789,3.806c-3.632,0.772-7.163,1.521-10.798,2.292
					c0.357,1.748,0.686,3.36,1.046,5.114c3.877-0.791,7.663-1.565,11.601-2.372c0.263,1.282,0.51,2.486,0.782,3.816
					c-5.851,1.221-11.579,2.413-17.456,3.636c-1.47-7.095-2.916-14.084-4.385-21.179c5.812-1.208,11.459-2.38,17.209-3.572
					c0.271,1.322,0.514,2.498,0.787,3.82c-3.795,0.798-7.498,1.578-11.314,2.38c0.307,1.518,0.593,2.928,0.908,4.48
					C234.954,315.181,238.498,314.453,242.146,313.706z"/>
				<path d="M263.515,305.376c5.478,1.157,10.808,2.284,16.3,3.442c-0.271,1.288-0.523,2.492-0.802,3.825
					c-3.498-0.73-6.886-1.438-10.429-2.177c-0.345,1.598-0.663,3.083-1.022,4.75c3.468,0.744,6.885,1.476,10.424,2.232
					c-0.271,1.321-0.52,2.525-0.783,3.819c-3.522-0.739-6.914-1.447-10.436-2.188c-0.621,2.894-1.22,5.688-1.857,8.672
					c-1.947-0.406-3.821-0.8-5.85-1.224C260.54,319.491,262.004,312.541,263.515,305.376z"/>
				<path fill="#FFFFFF" d="M302.529,325.721c-0.579,3.333-1.099,6.322-1.656,9.527c-2.173-1.512-4.177-2.907-6.375-4.438
					C297.171,329.116,299.696,327.514,302.529,325.721z"/>
			</g>
		</g>
	</g>
</g>
</svg>
